<svg id="Layer_1" xmlns="http://www.w3.org/2000/svg" xmlns:xlink="http://www.w3.org/1999/xlink" x="0px" y="0px" viewBox="0 0 1133.86 183.501"><defs><path id="SVGID_1_" d="M0 0h1133.858v183.501H0z"/></defs><clipPath id="SVGID_2_"><use xlink:href="#SVGID_1_" overflow="visible"/></clipPath><path clip-path="url(#SVGID_2_)" fill="#dfaa00" d="M1068.858 183.501H811.789l-2.312-66.085c0-3.5 13.697-.614 13.697-.614.779.074.989-5.511.989-5.511.375-.813 1.363-.517 1.363-.517 1.176.609 2.795-.27 2.795-.27.72-2.036 1.77-5.628 1.77-5.628 2.117-.851 3.708-.688 3.708-.688 1.261 1.148 13.397 1.804 13.397 1.804 1.524.154 1.392-1.64 1.392-1.64l-1.392-38.23c.096-8.23 1.695-7.978 1.695-7.978 1.104-.147 1.585 3.865 1.585 3.865 1.313-1.844 1.173-.153 1.173-.153-.327 1.191 1.773 1.059 1.773 1.059.197-1.75.633-2.094.633-2.094.581-.531 1.119 1.666 1.119 1.666l.835-.812c-.715-2.678-1.015-5.465-1.015-5.465.957-.58 2.063-.771 2.063-.771l-.086-5.758c-.44-1.608-1.51-4.894-1.51-4.894 1.173-1.628 1.136-3.245 1.136-3.245 1.873.19 2.583-.168 2.583-.168-.794-6.041-.004-6.34-.004-6.34-.609-2.631 1.487-3.09 1.487-3.09-.875-6.22 1.728-6.185 1.728-6.185l.017-.848c-.88-.191-1.151-.803-1.151-.803-.779-3.432 2.138-2.543 2.138-2.543 2.593 1.301.362 3.241.362 3.241.097 3.929 3.86 10.549 3.86 10.549l-.386 4.197c-.301 3.299 3.01 4.489 3.01 4.489-.422 2.751 1.07 2.254 1.07 2.254-2.228 3.505-1.541 11.442-1.541 11.442 4.356-.427 2.89 1.146 2.89 1.146-1.502 4.844.043 4.866.043 4.866-.21-1.791.427-1.541.427-1.541 1.105.313 1.12 2.758 1.12 2.758 2.711-3.574 3.438-3.088 3.438-3.088 2.399 1.213 2.318 6.412 2.318 6.412v37.306c3.219-1.819 7.253-.149 7.253-.149 1.222-.345 2.489-.153 3.375-.398.888-.245 3.164 1.242 3.164 1.242s.231-9.515.026-11.665c-.206-2.15.89-1.746.89-1.746l2.573-.162v-4.677c0-1.75-1.076-3.01-1.076-3.01-.393-1.097 3.155-4.323 3.155-4.323l1.89-5.218 1.698 4.64c1.416.214 1.194 1.213 1.194 1.213.242.741 1.054 1.797 1.054 1.797 2.665 1.474.413 4.693.413 4.693-1.422 6.167 1.285 6.11 1.285 6.11 3.613.026 1.627 5.235 1.627 5.235-1.009 9.262 1.819 9.017 1.819 9.017 5.562-1.221 10.707 1.013 10.707 1.013 3.448.88 2.396 5.958 2.396 5.958l.681 24.246c.049 4.5.878 3.633.878 3.633l8.491-19.305c9.325-19.306 2.397-23.644 2.397-23.644-15.64-10.819-18.546-24.906-18.546-24.906-2.686-18.475 27.43-13.977 27.43-13.977 33.494 3.799 46.581 21.382 46.581 21.382 9.506 8.235 6.285 17.966 6.285 17.966 8.109 9.396 21.08 9.606 21.08 9.606l11.563-1.735c4.075-.468 1.271 2.779 1.271 2.779l-6.645 8.462 10.595 1.581c4.726 2.589 2.126 4.276 2.126 4.276l-6.611 4.69c8.737 2.306 5.249 2.604 5.249 2.604-5.764.91-8.114 4.871-8.114 4.871l2.056 5.348h38.641v40.458zm-92.486-40.456l.011-7.684c-.216-3.888-13.124-9.139-13.124-9.139-4.695-6.525 5.996-7.518 5.996-7.518 6.233-2.205 21.368-.641 21.368-.641 4.335-6.684-16.994-8.562-16.994-8.562-17.993-2.247-17.304 33.542-17.304 33.542h20.047zm37.613 0s-.181-11.914-4.938-11.605c0 0-10.161-2.734-12.925-.006 0 0-4.833 1.815-2.833 12.482h20.696v-.871z"/><path clip-path="url(#SVGID_2_)" fill="#dfaa00" d="M818.289 183.501H79v-40.456h44.122c1.5 0 1.306-2.462 1.306-2.462v-29.667c0-2 2.027-2.001 2.027-2.001l11.525-1.061c2.886-.266 2.241-1.938 2.241-1.938v-6.167c0-2.333 2.084-2.005 2.084-2.005l13.649-1.343c2.178-.214 1.623-1.985 1.623-1.985v-29.5c0-2.667 1.932-2.817 1.932-2.817l23.896-3.679c2.304-.355 1.928 2.329 1.928 2.329v19c0 2.834 2.42 2.104 2.42 2.104l25.015-3.904c2.14-.334 1.813 1.471 1.813 1.471l.305 2.872c.175 1.648 2.381.982 2.381.982l11.652-1.765c2.217-.336 2.543 2.07 2.543 2.07l4.56 9.471c1.298 2.696 3.271 2.084 3.271 2.084l16.655-1.308c2.306-.181 1.765 3.088 1.765 3.088l.236 15.333c.048 3.155 2.365 1.832 2.365 1.832l18.232-2.795 1.64-3.768c1.056-2.426 2.644-2.76 2.644-2.76l8.743-2.051c2.88-.676 2.193 2.033 2.193 2.033l-.591 10.666 14.481-2.168c-.507-2.304-.403-7.946-.403-7.946-.318-2.692 1.01-7.492 1.01-7.492-2.15-1.617 2.728-2.73 2.728-2.73-6.672 1.527-5.456-.549-5.456-.549 4.246-2.271 3.325-4.615 3.325-4.615.865-11.901 12.502-13.697 12.502-13.697-3.926.541-2.507-2.172-2.507-2.172 2.192-2.007.691-7.625.691-7.625-.393-2.982 2.087-4.961 2.087-4.961-3.03 1.033-3-.82-3-.82-.031-2.537 3.549-2.19 3.549-2.19-.233-2.476 1.115-3.796 1.115-3.796 1.258-.772 1.09-7.46 1.09-7.46.599-2.984-1.468-4.263-1.468-4.263-2.119-2.121 1.501-2.178 1.501-2.178 1.257-4.424 1.546.315 1.546.315-.322 1.641 1.618 2.454 1.618 2.454.546 1.719-1.797 1.297-1.797 1.297l-.403 5.508c1.038 2.397 1.507 4.337 1.507 4.337 2.973 1.04 2.631 3.812 2.631 3.812 2.983 2.173.026 4.347.026 4.347.885 2.772-.018 9.609-.018 9.609 2.741 2.756.565 4.878.565 4.878 12.431 3.757 9.824 15.855 9.824 15.855 1.63-.012 2.539 1.695 2.539 1.695.67 1.934-1.251 2.978-1.251 2.978-1.987 2.486-.44 6.662-.44 6.662-.648 5.697 4.61 3.968 4.61 3.968l-.184-11.022c-2.846-1.857.079-5.027.079-5.027-1.517-2.508.651-4.995.651-4.995-4.366-3.379.545-6.012.545-6.012l.274-19.133c-3.422.852-3.536-2.965-3.536-2.965-1.832-1.739 2.445-3.869 2.445-3.869-1.387-1.482.544-2.732.544-2.732-1.093-4.34 2.73-4.646 2.73-4.646.261-4.987 4.913-4.374 4.913-4.374v-1.64c-4.192.11-1.808-3.581-1.808-3.581-2.633-2.581 1.606-4.317 1.606-4.317-2.278-1.272-.344-3.036-.344-3.036l1.092-8.473-1.606-1.007 2.065-.715.904 1.994.819-1.364.82 3.004-2.184-.544.267 5.758c2.804 3.469.553 4.351.553 4.351 3.859 2.195 1.415 4.822 1.415 4.822 1.649 2.393-.051 4.2-.051 4.2 3.548 1.091 3.82 6.013 3.82 6.013.167-1.144 1.639-1.639 1.639-1.639 2.262.49 1.052 3.507 1.052 3.507 1.846 2.711.038 4.693.038 4.693 3.896.666 3.003 1.092 3.003 1.092.648 2.507-2.776 4.875-2.776 4.875l.209 26.949h154.302l.592-3.067 22.434-7.526 80.256 45.219 47.669-71.03 18.403-27.943c4.011-2.218-.265-5.175-.265-5.175l17.642-9.531-.627 5.038-35.153 59.583 11.535 1.182c-1.797-9.543 7.732-7.987 7.732-7.987 15.747.224 14.153 3.529 14.153 3.529l.371 7.763c45.128-14.906 58.932-10.764 58.932-10.764 44.392 9.332 55.941 44.335 55.941 44.335v71.251zM721.04 79.513s-10.832 2.124-15.229 12.263c0 0-.653 1.818.721 1.96l5.928.604s1.62.575 1.62-.8v-5.875s-.275-1.65 1.456-1.474l1.856.189s.902.194 1.229-.772l2.419-6.095zm1.941-.763l-2.95 6.538s-.989 1.019 1.009 1.698l6.402.408s1.904.64 2.471-1.266l2.882-8.96s.788-1.533-.756-1.295l-8.013 1.939s-.784.359-1.045.938m12.921-4.307s-.966.073-1.402 1.405l-2.102 7.713-1.193 3.425s.162.828 2.35 1.052l4.873.497s2.232.272 1.984-1.549l1.307-8.269 1.015-.971v-3.303s-.015-1.214-.968-1.002l-5.864 1.002zm11.215-1.86s-1.143-.035-1.68 1.247l-4.189 13.667s-.496 3.419-.496 5.669v13.5s-.178 1.656 1.139 2.328l3.415.349s1.585.477 1.812-.776l4.908-33.902s.425-1.496-.53-2.081h-4.379zm8.173-.182s-1.274-.238-1.46 1.015l-4.401 29.733-.239 4.934s-.256 1.555 1.097 1.693l7.12.726s-.391-.727.579-.657c0 0-1.363-2.096.387-4.679l.459-30.836s.313-1.534-.438-1.611l-3.104-.318zm6.246 1.709s-.922-.281-.91.887l-.056 26 .034 1.434s4.819-1.163 6.461.661V75.848s.476-1.125-.604-1.235l-4.925-.503zm11.048 33.434c-.137.495 1.206.443 1.206.443.742.077.726-.821.726-.821V80.843c0-5.824-5.394-4.995-5.394-4.995-1.237-.181-.847 1.318-.847 1.318v26.051c5.659.58 4.309 4.327 4.309 4.327m4.586-28.441s-1.207-.187-1.207 1.146v26.334s-.072 1.373 1.207 1.504l3.54.363s1.187.219 1.115-1.027l-1.455-25.75s.088-1.304-.729-1.634l-2.471-.936zm6.095 2.879s-.913-.399-.913.851v25.159s-.128.579.913.782l3.886.658s1.117-.223 1.138-.968l-1.551-20.634c-.001.001.418-4.281-3.473-5.848m6.193 3.93s-2.04-1.099-1.896.661c0 0 .696 1.581.747 2.635l1.149 17.041-.072 2.017s-.479.736.421 1.318l3.149.322s1.121.371 1.067-.474l-1.815-19.444s.586-1.829-2.75-4.076m5.348 4.071s-1.294-2.234-.78.35l.851 13.555s-1.097-8.929 2.908-8.783V93.25c-.001-.001.05-1.274-2.979-3.267M687.075 24.972L543.807 78.969m141.31-50.274L548.314 81.879m132.045-46.514L555.457 85.541m5.292 3.14l115.072-47.223m-3.072 6.017L566.315 91.9m101.251-36.613l-95.32 39.954m90.192-32.311l-83.629 36.008m79.093-29.251l-72.771 32.814m66.584-23.596l-60.366 27.099m55.914-20.463l-51.108 23.171m4.673 2.634l41.794-18.891m-4.351 6.483l-33.254 14.767m29.134-8.628l-23.973 11.536m18.183-2.908l-12.92 5.874m-105.101-2.717l2.878.04 4.085-21.172h-6.963v21.132zm-123.479 24.223s3.132-1.529 7.947.317c4.814 1.847 6.43.046 6.43.046s3.938-2.354 9.578.224c0 0 2.494 1.642 5.65-.224s8.798-.046 8.798-.046 3.561 1.82 6.543 0c2.982-1.819 7.309-.468 7.309-.468s3.339 2.44 8.673.461c5.333-1.979 9.145.422 9.145.422s2.079 1.504 5.217-.365c3.138-1.869 9.756.281 9.756.281s3.715 1.524 6.715-.313 8.306.242 8.306.242l3.431.575.52-4.282s-4.164-2.535-7.127-.287-6.741.718-6.741.718-5.587-2.966-8.488-.718-7.535.478-7.535.478-4.19-2.393-7.695-.478c-3.504 1.915-7.676.432-7.676.432s-4.096-3.021-8.953.141c0 0-2.498 1.035-6.319-.156-3.821-1.19-3.949-1.724-8.836.137-4.887 1.862-8.628-.902-8.628-.902s-2.926-1.755-6.692.938c0 0-3.004 1.494-6.785-.34-3.782-1.833-7.022-.248-7.022-.248s-2.782 1.422-5.521 1.002v2.413zm0-10.249v4.528s1.69.502 5.121-1.036c3.432-1.537 8.561.574 8.561.574s3.664 1.484 5.767-.188c2.104-1.673 7.246-1.405 8.8-.039 1.554 1.366 5.433.473 6.429.044.995-.429 4.346-2.172 8.798-.05 0 0 4.032 1.978 6.43.05 2.397-1.928 8.546-.999 9.409.161.863 1.161 6.671.628 6.704-.543.034-1.171 6.672-1.278 7.915.338 1.244 1.616 7.363.395 7.553-.432.191-.827 5.351-1.564 8.396.679 3.045 2.244 7.235-.824 7.235-.824s2.66-1.527 7.297.584l.638-4.516s-1.39-.969-7.32 1.766c0 0-2.335.279-4.943-.604-2.607-.884-4.889-2.249-7.438-.393-2.549 1.856-5.912.93-5.912.93s-5.518-4.142-10.95-.266c0 0-2.463.957-5.66-.114 0 0-4.591-2.531-7.934-.55 0 0-3.555 2.492-7.699.425-4.144-2.068-8.345-.076-8.345-.076s-2.541 1.496-6.337.251c-3.795-1.246-4.863-2.098-8.788-.295-3.924 1.802-8.088-.261-8.088-.261s-4.256-2.619-7.387.365-8.252-.508-8.252-.508m0-7.659v4.261s4.381 2.896 9.217 0c0 0 3.82-1.492 8.836 1.288 0 0 4.211.694 6.793-1.433s9.041 1.282 9.041 1.282 3.905.176 6.66-1.429c2.756-1.605 8.088 1.289 8.088 1.289s3.811 1.356 5.552-.706c1.741-2.063 8.977.477 8.977.477s3.226 1.574 6.557-.607c3.332-2.183 8.764.64 8.764.64s2.193 1.564 5.568-.254 9.912.336 9.912.336 3.582.999 6.022-.64c2.441-1.64 5.622-.526 5.622-.526l1.244-2.563-2.565-1.078s-3.929 2.238-8.702.925c-4.773-1.314-3.582-1.974-8.745.003-5.163 1.976-7.211-.248-7.211-.248s-3.798-2.416-7.5.028c-3.702 2.445-8.22-.198-8.22-.198s-3.627-1.902-7.117.246c-3.49 2.147-7.397 0-7.397 0s-4.194-2.231-7.144-.292c-2.949 1.939-7.203.577-7.203.577s-5.181-2.642-8.026-.577-6.465.795-6.465.795-5.831-3.157-9.293-.569c0 0-3.171 1.428-5.72.621l-5.545-1.648zm99.473-27.447c-5.843 0-10.58 4.739-10.58 10.586s4.737 10.586 10.58 10.586 10.58-4.739 10.58-10.586-4.737-10.586-10.58-10.586m-19.206 0a7.147 7.147 0 0 0-7.144 7.148 7.146 7.146 0 0 0 7.144 7.148c3.946 0 7.145-3.2 7.145-7.148a7.148 7.148 0 0 0-7.145-7.148m-13.914 0c-2.842 0-5.146 2.305-5.146 5.148s2.304 5.148 5.146 5.148c2.841 0 5.145-2.305 5.145-5.148s-2.304-5.148-5.145-5.148m-10.324 0a3.504 3.504 0 0 0-3.503 3.505 3.504 3.504 0 0 0 7.006 0 3.504 3.504 0 0 0-3.503-3.505m-7.69 0a2.935 2.935 0 1 0 0 5.87 2.934 2.934 0 0 0 2.932-2.935 2.934 2.934 0 0 0-2.932-2.935m62.284 25.186V94.749H364.122l.051 2.059s50.623-8.553 127.12 23.277c0 0 2.719-.836 6.191.831m-133.609-20.589l.06 13.324s1.517-4.617 6.436-1.26c0 0 .596.381-.16 1.536 0 0 3.339-4.655 5.458 0l7.25-.119s2.713-.253 2.235 1.983l-.477 2.236s2.423-.283 2.184 1.886c0 0 4.403.765 6.082 1.717 0 0 1.997.303 4.413-.604 2.417-.906 5.979-2.518 10.099.651 0 0 3.225 1.115 6.113-1.073 2.887-2.189 9.01.781 9.01.781s2.763 1.586 5.237-.359c2.474-1.944 8.994-.971 10.317.459 1.323 1.43 4.911-.463 4.911-.463s4.393-2.359 10.171.42c0 0 3.793 1.033 6.017-.831 2.224-1.863 7.839.371 7.839.371s4.138 2.154 6.429.044c2.29-2.111 8.8-.05 8.8-.05l4.526.755c0 .001-64.03-28.16-122.95-21.404"/><path clip-path="url(#SVGID_2_)" fill="none" stroke="#dfaa00" stroke-miterlimit="10" d="M364.371 81.519l145.717-.608v7.713M368.903 81.519v7.105M372.826 81.519v7.105M376.137 81.519v7.105M380.667 81.519v7.105"/><path clip-path="url(#SVGID_2_)" fill="#dfaa00" d="M383.312 81.518h1.945v7.105h-1.945z"/><path clip-path="url(#SVGID_2_)" fill="none" stroke="#dfaa00" stroke-miterlimit="10" d="M388.512 81.519v7.105M392.432 80.91v7.713M395.747 81.519v7.105M400.277 81.519v7.105M404.198 81.519v7.105M407.511 81.519v7.105M411.433 80.91v7.713M415.354 81.519v7.105M419.885 81.519v7.105M423.808 81.519v7.105M427.729 81.519v7.105M431.651 81.519v7.105M435.573 81.519v7.105M439.494 81.519v7.105M443.416 81.519v7.105M447.339 81.519v7.105M451.261 80.91v7.713M455.182 81.519v7.105M458.495 81.519v7.105M462.417 80.91v7.713M466.947 80.91v7.713M470.259 80.91v7.713M474.791 80.91v7.713M478.713 80.91v7.713M482.636 80.91v7.713M485.947 80.91v7.713M489.868 80.91v7.713M494.399 80.91v7.713M498.322 80.91v7.713M501.634 80.91v7.713M506.166 80.91v7.713"/><path clip-path="url(#SVGID_2_)" fill="#dfaa00" d="M502.939 80.91h1.947v7.713h-1.947zM93.289 7.583V156.25h31.909V33.555s-25.382-2.04-31.909-25.972M383.745 56.033h1.08v4.32h-1.08zM384.039 60.353l-.12 20.557h.73V60.354z"/><path clip-path="url(#SVGID_2_)" fill="none" stroke="#dfaa00" stroke-width="0.5" stroke-miterlimit="10" d="M384.039 60.353l-.12 20.557h.73V60.354z"/><path clip-path="url(#SVGID_2_)" fill="#dfaa00" d="M378.327 55.353h.682v.542l1.015.91-.402 3.043-.867.546-1.011-.546-.403-3.043.986-.91z"/><path clip-path="url(#SVGID_2_)" fill="none" stroke="#dfaa00" stroke-width="0.3" stroke-miterlimit="10" d="M378.537 60.346s-.302 1.582.881 1.545c1.184-.037.514-1.233.514-1.233s-.745-.58-.629.327c.115.906.515.064.515.064M380.026 60.775s3.125-3.775 3.563-1.036c0 0-.031 1.895-1.571 1.036 0 0-.535-1.005.596-1.268 0 0 .956.385-.059.991"/><path clip-path="url(#SVGID_2_)" fill="none" stroke="#dfaa00" stroke-width="0.3" stroke-miterlimit="10" d="M383.109 56.965s.627.295.56-.596c0 0-1.407-.481-.789 1.259l.708 2.111M384.98 59.739l.931-2.939s-.675-1.08-1.055.018c0 0 .207.633.632.147"/><path clip-path="url(#SVGID_2_)" fill="none" stroke="#dfaa00" stroke-width="0.3" stroke-miterlimit="10" d="M388.609 61.143s-2.005-3.473-3.348-2.011c0 0-1.223 1.214.34 2.031 0 0 1.485-.313.354-1.655 0 0-.996-.041-.519.903 0 0 .268.143.39-.123"/><path clip-path="url(#SVGID_2_)" fill="#dfaa00" d="M382.942 51.721l.405 3.047.792.497v.768h.292v-.768l.792-.497.404-3.047-.987-.905-.028-.545h-.682v.545z"/><path clip-path="url(#SVGID_2_)" fill="none" stroke="#dfaa00" stroke-width="0.3" stroke-miterlimit="10" d="M389.814 60.394s.573 1.013-.664 1.497c0 0-1.274-.169-.526-1.218 0 0 .724-.371.854.376 0 0-.547.471-.501.079"/><path clip-path="url(#SVGID_2_)" fill="#dfaa00" d="M389.814 60.394l1.011-.546.403-3.043-.987-.91-.027-.542h-.681v.542l-.988.91.404 3.043zM503.373 55.713h1.08v4.32h-1.08zM503.667 60.033l-.12 20.557h.73V60.034zM497.956 55.033h.682v.542l1.014.91-.402 3.043-.866.546-1.011-.546-.403-3.043.986-.91z"/><path clip-path="url(#SVGID_2_)" fill="none" stroke="#dfaa00" stroke-width="0.3" stroke-miterlimit="10" d="M498.165 60.026s-.302 1.582.881 1.545c1.184-.037.514-1.233.514-1.233s-.745-.58-.629.327c.115.906.515.064.515.064M499.654 60.456s3.125-3.775 3.563-1.036c0 0-.031 1.895-1.571 1.036 0 0-.535-1.005.596-1.268 0 0 .956.385-.059.991"/><path clip-path="url(#SVGID_2_)" fill="none" stroke="#dfaa00" stroke-width="0.3" stroke-miterlimit="10" d="M502.738 56.645s.627.295.56-.596c0 0-1.406-.481-.789 1.259l.708 2.112M504.609 59.419l.931-2.939s-.675-1.08-1.055.018c0 0 .207.633.632.146"/><path clip-path="url(#SVGID_2_)" fill="none" stroke="#dfaa00" stroke-width="0.3" stroke-miterlimit="10" d="M508.238 60.823s-2.005-3.473-3.348-2.011c0 0-1.223 1.214.34 2.031 0 0 1.486-.313.354-1.655 0 0-.996-.041-.519.903 0 0 .268.143.39-.123"/><path clip-path="url(#SVGID_2_)" fill="#dfaa00" d="M502.57 51.401l.405 3.047.792.497v.768h.292v-.768l.792-.497.404-3.047-.987-.905-.028-.545h-.682v.545z"/><path clip-path="url(#SVGID_2_)" fill="none" stroke="#dfaa00" stroke-width="0.3" stroke-miterlimit="10" d="M509.442 60.074s.573 1.013-.664 1.497c0 0-1.274-.169-.526-1.218 0 0 .724-.371.854.376 0 0-.547.471-.501.079"/><path clip-path="url(#SVGID_2_)" fill="#dfaa00" d="M509.442 60.074l1.011-.546.403-3.043-.987-.91-.027-.542h-.681v.542l-.988.91.404 3.043zM0 143.045h79v40.456H0zM1068.858 143.045h65v40.456h-65z"/><path clip-path="url(#SVGID_2_)" fill="#FFFFFF" d="M477.201 106.082c0 4.907 4.109 8.885 9.179 8.885 5.069 0 9.179-3.978 9.179-8.885s-4.11-8.885-9.179-8.885-9.179 3.978-9.179 8.885"/><ellipse clip-path="url(#SVGID_2_)" fill="none" stroke="#FFFFFF" stroke-miterlimit="10" cx="486.38" cy="106.082" rx="9.179" ry="8.885"/><path clip-path="url(#SVGID_2_)" fill="#FFFFFF" d="M460.914 102.851c0 3.488 2.771 6.315 6.189 6.315s6.189-2.827 6.189-6.315c0-3.487-2.771-6.314-6.189-6.314s-6.189 2.826-6.189 6.314"/><ellipse clip-path="url(#SVGID_2_)" fill="none" stroke="#FFFFFF" stroke-width="0.7" stroke-miterlimit="10" cx="467.103" cy="102.851" rx="6.189" ry="6.315"/><path clip-path="url(#SVGID_2_)" fill="#FFFFFF" d="M448.873 100.83c0 2.372 1.932 4.294 4.314 4.294 2.383 0 4.315-1.922 4.315-4.294s-1.932-4.294-4.315-4.294c-2.383 0-4.314 1.922-4.314 4.294"/><ellipse clip-path="url(#SVGID_2_)" fill="none" stroke="#FFFFFF" stroke-width="0.5" stroke-miterlimit="10" cx="453.187" cy="100.83" rx="4.314" ry="4.294"/><path clip-path="url(#SVGID_2_)" fill="#FFFFFF" d="M439.873 99.235c0 1.626 1.352 2.943 3.021 2.943 1.668 0 3.021-1.317 3.021-2.943s-1.353-2.944-3.021-2.944c-1.669 0-3.021 1.318-3.021 2.944"/><ellipse clip-path="url(#SVGID_2_)" fill="none" stroke="#FFFFFF" stroke-width="0.2" stroke-miterlimit="10" cx="442.894" cy="99.235" rx="3.021" ry="2.943"/><path clip-path="url(#SVGID_2_)" fill="#FFFFFF" d="M432.356 98.657a2.822 2.822 0 1 0 5.644 0 2.822 2.822 0 0 0-5.644 0"/><circle clip-path="url(#SVGID_2_)" fill="none" stroke="#dfaa00" stroke-width="0.5" stroke-miterlimit="10" cx="435.177" cy="98.657" r="2.821"/></svg>